<svg width="188" height="563" viewBox="0 0 188 563" fill="none" xmlns="http://www.w3.org/2000/svg">
<path d="M56.0828 6.56098C56.1789 6.13839 56.0846 5.73493 56.0313 5.30835C60.1201 2.05846 60.5821 -1.6011 67.7307 0.744461L68.2198 0.907713L69.2466 0.224907C70.67 1.65324 72.0489 3.36625 73.358 4.91735C78.0111 7.47509 83.3094 10.6738 81.5472 16.8306C81.3119 17.6531 84.6336 21.2184 85.3273 22.3816C88.6597 28.465 86.2416 29.3431 87.9242 32.7278C89.8532 35.3402 94.1412 50.5123 95.3641 54.5566C96.892 59.6094 94.6353 67.735 98.4395 72.7891C99.1474 74.0195 99.3213 76.1439 99.3933 77.5131C99.8042 85.3233 103.782 92.4258 105.885 99.9981C108.4 109.058 115.911 116.975 119.869 124.836L119.087 125.417C122.008 132.867 128.669 141.047 132.317 147.405C133.896 150.156 140.522 178.259 140.317 179.863L139.635 180.699C139.815 181.108 142.002 185.001 142.007 184.676C141.964 187.289 143.098 198.233 142.268 200.055C142.354 204.199 141.65 204.657 138.816 207.843L139.786 208.641L139.733 209.069C139.1 214.446 138.885 216.618 142.951 220.373C141.515 227.075 140.19 229.31 137.518 235.508C137.959 235.641 138.24 235.774 138.633 236.036C138.48 240.087 138.998 243.273 139.057 246.855C139.081 248.346 135.988 253.626 136.148 256.713C136.508 263.661 140.516 265.68 134.528 272.033C133.701 272.9 132.856 273.75 131.992 274.581C131.698 277.228 131.23 277.415 132.71 279.51C132.223 280.849 130.507 285.052 130.493 286.076C130.971 288.829 130.884 288.745 128.837 290.835L128.775 291.921C129.49 292.25 129.878 292.401 130.366 293.033C130.664 295.928 131.605 304.224 129.821 306.315C131.433 306.609 131.939 306.662 133.401 307.369L133.715 307.12L134.119 307.618C133.673 305.795 133.458 306.151 134.025 304.723C137.28 302.921 141.888 310.421 147.716 309.731L149.434 308.188C150.824 308.424 150.341 308.846 150.778 309.051C156.323 311.684 162.876 312.649 163.427 320.718C165.927 320.781 169.102 323.192 170.742 325.082C170.532 325.954 170.313 326.096 169.746 326.79L169.993 327.649C171.128 328.112 171.303 328.138 172.521 328.378C172.151 329.579 172.18 329.25 170.963 330.189L171.508 331.292L173.337 331.866C173.441 333.058 170.662 335.117 173.12 338.423C174.589 338.2 174.973 337.893 176.192 338.418C176.936 339.455 176.855 339.441 176.851 340.767C173.897 348.409 164.385 352.319 170.99 361.077C170.942 361.011 171.634 363.782 171.801 364.245L170.72 365.196C171.132 367.465 172.426 365.917 172.621 368.097L170.704 368.648C169.802 370.837 172.966 375.926 170.166 378.959L169.088 378.612C168.758 381.317 171.22 387.149 171.85 389.991C172.517 393.007 169.535 391.116 172.569 394.417C172.556 397.179 170.721 396.325 171.293 398.429L171.626 398.589C172.744 399.145 172.95 399.194 173.823 400.031L173.69 400.974L172.422 401.525C172.81 402.9 173.731 405.111 173.312 406.178L172.267 406.449C172.459 408.909 173.734 407.433 173.484 410.155L172.031 411.302C172.592 412.014 173.246 412.045 174.154 412.272L174.147 412.815L171.376 414.843L171.709 415.68C172.485 415.897 173.063 416.058 173.858 416.218C172.702 419.932 174.019 420.506 173.613 422.121C173.697 424.972 174.999 427.361 175.288 431.146C174.14 431.395 173.847 431.413 172.787 432C172.975 433.219 172.993 433.174 173.581 434.175L174.487 433.584C176.144 435.319 176.999 438.81 176.536 441.261C175.78 442.365 175.739 442.471 174.687 443.263L174.54 444.237L176.134 444.34C177.077 445.968 178.623 448.721 178.733 450.545L176.633 453L175.438 451.564C173.215 452.209 173.999 453.352 171.268 454.504L171.465 453.623C170.492 447.818 168.912 441.355 167.891 435.479C167.522 433.357 168.57 432.111 168.004 431.195C163.475 423.873 167.423 414.75 166.277 407.308C164.613 399.599 163.641 391.864 161.798 384.195C161.358 382.362 164.017 374.435 163.972 371.522C163.868 364.827 158.631 357.643 161.842 351.122L162.434 351.1C163.123 351.073 163.323 351.042 164.011 350.873C163.136 349.08 162.675 348.96 163.057 347.346L164.298 346.265C163.541 340.74 156.778 343.12 158.493 336.39C160.66 334.486 164.065 336.296 164.627 332.475C164.893 330.665 160.046 325.336 158.539 326.021C146.283 331.599 134.761 336.203 121.424 338.943C117.961 339.655 112.173 340.406 109.125 341.679C108.501 341.487 107.082 341.06 106.515 341.283C100.489 343.636 94.9612 344.392 88.5232 344.97L87.8713 345.976L87.3937 345.958C84.7221 345.864 78.6199 346.091 75.9634 346.501L75.5067 347.595C72.5745 347.101 72.0676 345.451 70.2755 346.229L69.6459 347.065C68.6102 346.843 68.1753 346.723 67.1713 346.38C66.7506 346.692 66.3335 346.981 65.8733 347.23C64.8376 346.852 63.0282 346.025 62.0468 346.185C56.6992 349.423 47.8653 336.892 53.598 362.536C53.9084 363.929 51.7775 363.769 51.7224 365.85C52.2204 366.18 52.6304 366.442 53.1476 366.736C53.2512 369.502 51.2946 369.324 51.6294 371.504C51.8998 373.261 52.0127 375.49 52.4721 377.167L53.5077 377.055L53.7038 377.932L52.6282 379.035C52.6677 381.557 53.0826 384.128 53.4046 386.637C53.7714 389.497 53.4819 388.71 52.1768 390.849L53.3174 391.37C54.0067 394.742 54.2223 398.5 54.5154 401.952C53.7759 402.531 53.5109 402.66 52.7064 403.1L52.6193 403.887L53.7194 404.408C54.0284 412.103 53.3019 418.931 55.3038 426.511C55.5924 427.605 53.5317 433.215 53.1115 434.407C52.5961 437.231 54.924 440.665 53.1284 443.757C53.7759 445.541 54.6826 448.018 55.4492 449.762C55.6142 450.14 53.9395 451.951 54.8765 453.196L56.0033 453.41C56.0086 456.586 55.4848 457.849 54.1418 460.727C54.096 460.825 55.0085 461.852 55.1931 462.052C54.9529 463.329 54.6372 463.494 53.7029 464.495C53.4895 467.515 54.8778 471.256 53.8524 473.102C53.6078 473.542 52.6517 473.871 52.4912 474.979C54.1138 478.618 55.7436 479.107 56.6885 483.297C58.1355 487.737 58.5517 490.659 57.6343 495.334C57.5089 495.97 57.0464 499.302 57.3835 499.591C60.8182 502.572 58.7006 511.619 60.2646 513.706C60.6545 512.58 60.2988 512.932 61.0948 512.344L61.6569 512.878C61.2989 514.524 61.5897 514.48 60.5905 515.423L59.5571 515.156L59.3668 515.801L60.3486 517.389C59.6718 519.848 58.7073 517.575 58.9657 521.156C59.0844 522.802 59.1089 526.049 58.814 527.691C58.5779 529.003 56.4973 529.608 56.6084 531.868L57.7611 531.579C58.8292 533.767 56.4648 534.021 58.8278 536.681C58.5784 537.566 58.2435 538.024 58.5908 538.62C61.6475 543.856 56.1967 551.636 58.7055 555.848C58.3716 557.356 58.5695 557.645 57.6819 558.611L56.7179 558.059C57.3093 559.5 57.4893 559.772 57.082 561.284C55.8441 562.574 56.4048 562.307 54.8022 562.819L54.0107 562.338L53.7576 560.835C52.9581 560.715 52.4712 561.088 51.7277 561.466L53.7808 558.913L53.4979 558.922C52.6864 558.931 52.4045 558.997 51.6766 558.619C50.6382 556.164 51.0682 554.576 53.2654 553.166L53.3983 552.801C52.3636 552.819 52.5348 552.97 51.5045 553.784C51.3626 552.975 52.1835 548.5 52.8492 547.726L54.3255 547.45L54.6208 546.489L54.1694 546.107L52.6637 546.293L52.276 545.684C52.9181 544.541 53.3312 543.985 54.1192 542.93C53.409 540.635 52.9648 543.108 51.7077 539.616C50.6485 536.676 52.2457 530.471 51.2746 529.399L50.1869 529.43C49.9454 528.122 50.2958 526.868 50.5333 525.533C51.2799 526.383 51.7006 527.419 52.1951 528.443L52.4721 528.336C51.9354 521.997 53.2658 519.542 53.1996 513.794C53.1929 513.221 53.0208 513.599 53.3058 512.647C53.309 513.02 52.4508 504.618 52.5361 504.978C49.2189 503.457 51.589 495.886 51.8206 492.874C48.209 490.259 50.2505 486.567 48.9694 485.112C45.7241 481.434 47.0906 476.456 44.7792 473.809C40.6944 472.332 42.9387 469.566 44.0033 466.505C44.5684 464.882 45.6094 463.004 46.6117 461.59C46.3209 460.829 46.2871 460.754 46.1675 459.948C46.7687 459.708 47.365 459.45 47.956 459.183C48.0991 457.226 46.8292 456.212 46.7883 454.201L48.04 454.664C48.7226 452.511 44.3025 449.704 44.0486 448.236C43.7227 446.359 46.4298 442.649 46.4872 440.536L45.1083 440.777C44.8637 438.81 47.6527 428.539 47.5473 426.791C47.2854 422.419 44.8286 413.718 45.7806 408.892C45.8762 408.407 46.6593 408.344 47.297 408.162L47.3886 407.624C46.0092 406.672 46.5108 408.255 44.5716 407.94C44.3777 406.908 45.7606 403.834 46.1248 402.886C48.4776 396.77 46.71 400.226 45.5396 395.796C45.4991 395.645 46.4659 389.244 46.5174 388.412C46.5072 388.576 45.1412 386.01 44.9504 385.583C50.2812 378.946 40.9568 377.692 44.4239 372.158C44.1046 371.21 44.1896 371.513 42.9832 370.881L43.0401 370.125L44.8401 368.635L42.9418 368.137L44.0433 366.798C42.4366 364.196 44.2025 365.77 45.9198 363.399C45.7517 360.722 44.8063 361.811 44.3234 359.463L45.6099 358.199C44.9873 355.499 37.7244 350.068 35.4686 347.684C35.2552 341.176 43.7222 338.547 46.063 335.144C45.4747 334.472 45.4369 334.455 45.042 333.663C45.5574 333.022 46.0501 332.529 46.6197 331.946C43.8489 329.998 47.035 331.617 46.0808 327.938C46.5953 325.941 46.1835 326.323 47.4931 325.185C47.6438 323.588 46.1048 324.544 45.8642 322.115C47.3597 319.976 47.321 321.461 48.9147 319.904C47.815 317.365 48.6786 317.952 48.1747 316.964L46.6775 318.401L46.3663 318.179C51.0789 312.685 46.8843 314.633 48.2441 311.266L49.6533 311.141L49.8267 310.141C47.3748 306.271 50.3643 305.172 50.7614 301.164C50.8637 300.132 48.8289 295.96 48.4705 293.646L48.9498 293.175C49.5581 293.406 49.844 293.482 50.4782 293.638L50.7334 293.033C49.6978 291.965 49.4807 291.818 48.8315 290.515C48.9969 288.051 49.5212 290.528 51.4627 288.095L51.267 287.459L49.8089 287.592L49.3709 287.108C49.6386 283.691 49.973 282.762 51.0745 279.47L50.9758 279.452C51.4951 276.063 51.6379 275.373 50.7859 272.099C51.6299 270.987 52.6486 269.924 52.8959 268.607C51.7944 267.5 51.0705 267.713 49.2664 267.42C47.2867 262.522 47.6709 265.249 44.676 263.096L45.0429 261.864C42.7426 259.101 38.1985 256.01 35.9159 252.963C32.0281 247.772 29.3828 242.187 25.3976 236.898C23.4811 234.355 21.1794 232.925 18.5874 230.106C11.3188 222.199 3.27636 209.555 0.376185 199.075C0.142731 198.232 2.87215 194.91 2.83658 193.197C1.34025 193.241 1.69421 194.574 0 195.189C0.391759 190.115 3.33729 184.971 2.66049 179.82C2.55999 179.055 2.58979 179.324 2.96331 178.585C3.80909 178.828 4.44007 178.998 5.30985 179.186C5.26494 176.448 2.83257 176.433 2.53686 174.254L3.64144 174.521C5.53353 171.468 3.86288 171.29 7.95701 168.009C8.51107 167.471 8.26516 167.753 8.40701 166.716L7.08455 165.224L7.22775 164.588C8.71029 164.005 8.00592 164 9.4062 164.439C9.86689 165.08 10.0608 165.411 10.2831 166.169C10.8447 165.012 11.2916 164.184 11.9506 163.079C13.587 163.189 13.893 163.228 14.8032 161.835L14.2465 160.78L14.5911 160.23C20.4662 160.351 18.2757 159.351 19.8819 156.006L20.9348 156.919C20.9362 155.845 21.0509 156.357 20.4724 155.359L18.796 155.364L18.5412 154.7C20.074 152.94 19.977 153.037 18.6114 151.475L18.6924 150.326C18.7439 150.222 18.7951 150.118 18.8467 150.015L19.0899 149.49C21.2435 144.935 18.9618 144.8 23.244 141.576C25.5968 138.668 29.1804 135.717 32.998 135.612L32.7685 133.951C34.7287 132.552 44.7521 135.281 47.0938 136.597C48.0791 137.15 49.2953 137.805 50.3888 138.083C50.0757 137.414 49.7147 136.875 49.3287 136.247L49.5008 135.899L52.3934 136.478L52.2849 135.662C51.5276 134.896 51.3559 134.83 50.4515 134.32L50.1869 134.173C50.9838 133.744 51.5045 133.551 52.071 132.838C51.1287 132.06 50.6658 131.817 50.194 130.681C53.1435 121.096 52.433 121.082 60.0285 114.483C60.1192 112.785 60.1939 112.368 59.7038 110.758L58.9688 110.652L58.7633 110.154L59.6763 109.87C60.3882 108.657 60.2041 102.979 59.8955 101.481L58.3734 100.604L58.2017 99.9451C58.9145 99.7196 59.3121 99.5644 59.9991 99.2672L59.7652 98.588L58.6548 98.7739L58.2297 98.1601C58.6277 97.1436 58.67 97.1383 58.7536 95.9951L57.7886 95.9862L57.3987 95.48L58.4201 94.1571L58.2257 93.3773C57.3102 92.6732 56.6036 92.3066 56.2122 91.2417C57.4662 87.5399 56.3145 89.3348 54.7479 87.9331C55.1019 85.3327 55.4176 80.4943 55.2962 77.8062C55.2162 76.0398 52.1519 72.3905 52.7193 69.6758L53.932 69.718C54.792 67.8729 53.7781 65.0109 54.7279 63.7841C60.2312 56.6758 55.0009 55.3787 54.7524 52.9468L56.041 52.3747C56.3399 50.539 54.4687 49.3086 54.6021 47.8634C54.6101 47.201 56.1113 41.0229 55.7489 40.7795C53.4028 40.1012 56.2336 35.0164 55.6666 34.08C53.1395 29.9058 50.1762 21.9617 52.8212 17.4187C53.2561 16.6727 53.433 16.8996 53.7599 15.6541C53.2187 15.2137 52.6624 14.8231 52.0732 14.4504C53.2996 11.6413 54.0787 8.44303 56.0828 6.56098Z" fill="white"/>
<path d="M56.0828 6.56098C56.1789 6.13839 56.0846 5.73493 56.0313 5.30835C60.1201 2.05846 60.5821 -1.6011 67.7307 0.744461L68.2198 0.907713L69.2466 0.224907C70.67 1.65324 72.0489 3.36625 73.358 4.91735C78.0111 7.47509 83.3094 10.6738 81.5472 16.8306C81.3119 17.6531 84.6336 21.2184 85.3273 22.3816C88.6597 28.465 86.2416 29.3431 87.9242 32.7278C89.8532 35.3402 94.1413 50.5123 95.3641 54.5566C96.892 59.6094 94.6353 67.735 98.4395 72.7891C99.1474 74.0195 99.3213 76.1439 99.3933 77.5131C99.8042 85.3233 103.782 92.4258 105.885 99.9981C108.4 109.058 115.911 116.975 119.869 124.836L119.087 125.417C122.008 132.867 128.669 141.047 132.317 147.405C133.896 150.156 140.522 178.259 140.317 179.863L139.635 180.699C139.815 181.108 142.002 185.001 142.007 184.676C141.964 187.289 143.098 198.233 142.268 200.055C142.354 204.199 141.65 204.657 138.816 207.843L139.786 208.641L139.733 209.069C139.1 214.446 138.885 216.618 142.951 220.373C141.515 227.075 140.19 229.31 137.517 235.508C137.959 235.641 138.24 235.774 138.633 236.036C138.48 240.087 138.998 243.273 139.057 246.855C139.081 248.346 135.988 253.626 136.148 256.713C136.508 263.661 140.516 265.68 134.528 272.032C133.701 272.9 132.856 273.75 131.992 274.581C131.698 277.228 131.23 277.415 132.71 279.51C132.223 280.849 130.507 285.052 130.493 286.076C130.971 288.829 130.884 288.745 128.837 290.835L128.775 291.921C129.49 292.25 129.878 292.401 130.366 293.033C130.664 295.928 131.605 304.224 129.821 306.315C131.433 306.609 131.939 306.662 133.401 307.369L133.715 307.12L134.119 307.618C133.673 305.795 133.458 306.151 134.025 304.723C137.28 302.921 141.888 310.421 147.716 309.731L149.434 308.188C150.824 308.424 150.341 308.846 150.778 309.051C156.323 311.684 162.876 312.649 163.427 320.718C165.927 320.781 169.102 323.192 170.742 325.082C170.532 325.954 170.313 326.096 169.746 326.79L169.993 327.649C171.128 328.111 171.303 328.138 172.521 328.378C172.151 329.579 172.18 329.25 170.963 330.189L171.508 331.292L173.337 331.866C173.441 333.058 170.662 335.117 173.12 338.423C174.589 338.2 174.973 337.893 176.192 338.418C176.936 339.454 176.855 339.441 176.851 340.767C173.897 348.409 164.385 352.319 170.99 361.077C170.942 361.011 171.634 363.782 171.801 364.245L170.72 365.196C171.132 367.465 172.426 365.917 172.621 368.097L170.704 368.648C169.802 370.837 172.966 375.926 170.166 378.959L169.088 378.612C168.758 381.317 171.22 387.149 171.85 389.991C172.517 393.007 169.535 391.116 172.569 394.417C172.556 397.179 170.721 396.325 171.293 398.429L171.626 398.589C172.744 399.145 172.95 399.194 173.823 400.031L173.69 400.974L172.422 401.525C172.81 402.9 173.731 405.111 173.312 406.178L172.267 406.449C172.459 408.909 173.734 407.433 173.484 410.155L172.031 411.302C172.592 412.014 173.246 412.045 174.154 412.272L174.147 412.815L171.376 414.843L171.709 415.68C172.485 415.898 173.063 416.058 173.858 416.218C172.702 419.932 174.019 420.506 173.613 422.121C173.697 424.972 174.999 427.361 175.288 431.146C174.14 431.395 173.847 431.413 172.787 432C172.975 433.219 172.993 433.175 173.581 434.175L174.487 433.584C176.144 435.319 176.999 438.81 176.536 441.261C175.78 442.365 175.739 442.471 174.687 443.263L174.54 444.237L176.134 444.34C177.077 445.968 178.623 448.721 178.733 450.545L176.633 453L175.438 451.564C173.215 452.209 173.999 453.352 171.268 454.504L171.465 453.623C170.492 447.818 168.912 441.355 167.891 435.479C167.522 433.357 168.57 432.111 168.004 431.195C163.475 423.873 167.423 414.75 166.277 407.308C164.613 399.599 163.641 391.864 161.798 384.195C161.358 382.362 164.017 374.435 163.972 371.522C163.868 364.827 158.631 357.643 161.842 351.122L162.434 351.1C163.123 351.073 163.323 351.042 164.011 350.873C163.136 349.08 162.675 348.96 163.057 347.346L164.298 346.265C163.541 340.74 156.778 343.12 158.493 336.39C160.66 334.486 164.066 336.296 164.627 332.475C164.893 330.665 160.046 325.336 158.539 326.021C146.283 331.599 134.761 336.203 121.424 338.943C117.961 339.655 112.173 340.406 109.125 341.679C108.501 341.487 107.082 341.06 106.515 341.283C100.489 343.636 94.9612 344.392 88.5232 344.97L87.8713 345.976L87.3937 345.958C84.7221 345.864 78.6199 346.091 75.9634 346.501L75.5067 347.595C72.5745 347.101 72.0676 345.451 70.2755 346.229L69.6459 347.065C68.6102 346.843 68.1753 346.723 67.1713 346.38C66.7506 346.692 66.3335 346.981 65.8733 347.23C64.8376 346.852 63.0282 346.025 62.0468 346.185C56.6992 349.423 47.8653 336.892 53.598 362.536C53.9084 363.929 51.7775 363.769 51.7224 365.85C52.2204 366.18 52.6304 366.442 53.1476 366.736C53.2512 369.502 51.2946 369.324 51.6294 371.504C51.8998 373.261 52.0127 375.49 52.4721 377.167L53.5077 377.055L53.7038 377.932L52.6282 379.035C52.6677 381.557 53.0826 384.128 53.4046 386.637C53.7714 389.497 53.4819 388.71 52.1768 390.849L53.3174 391.37C54.0067 394.742 54.2223 398.5 54.5154 401.952C53.7759 402.531 53.5109 402.66 52.7064 403.1L52.6193 403.887L53.7194 404.408C54.0284 412.103 53.3019 418.931 55.3038 426.511C55.5924 427.605 53.5317 433.215 53.1115 434.407C52.5961 437.231 54.924 440.665 53.1284 443.757C53.7759 445.541 54.6826 448.018 55.4492 449.762C55.6142 450.14 53.9395 451.951 54.8765 453.196L56.0033 453.41C56.0086 456.586 55.4848 457.849 54.1418 460.727C54.096 460.825 55.0085 461.852 55.1931 462.052C54.9529 463.329 54.6372 463.494 53.7029 464.495C53.4895 467.515 54.8778 471.256 53.8524 473.102C53.6078 473.542 52.6517 473.871 52.4912 474.979C54.1138 478.618 55.7436 479.107 56.6885 483.297C58.1355 487.737 58.5517 490.659 57.6343 495.334C57.5089 495.97 57.0464 499.302 57.3835 499.591C60.8182 502.572 58.7006 511.619 60.2646 513.705C60.6545 512.58 60.2988 512.932 61.0948 512.344L61.6569 512.878C61.2989 514.524 61.5897 514.48 60.5905 515.423L59.5571 515.156L59.3668 515.801L60.3486 517.389C59.6718 519.849 58.7073 517.575 58.9657 521.156C59.0844 522.802 59.1089 526.049 58.814 527.691C58.5779 529.003 56.4973 529.608 56.6084 531.868L57.7611 531.579C58.8292 533.767 56.4648 534.021 58.8278 536.681C58.5784 537.566 58.2435 538.024 58.5908 538.62C61.6475 543.856 56.1967 551.636 58.7055 555.848C58.3716 557.356 58.5695 557.645 57.6819 558.611L56.7179 558.059C57.3093 559.5 57.4894 559.772 57.082 561.284C55.8441 562.574 56.4048 562.307 54.8022 562.819L54.0107 562.338L53.7576 560.835C52.9581 560.715 52.4712 561.088 51.7277 561.466L53.7808 558.913L53.4979 558.922C52.6864 558.931 52.4045 558.998 51.6766 558.619C50.6382 556.164 51.0682 554.576 53.2654 553.166L53.3983 552.801C52.3636 552.819 52.5348 552.97 51.5045 553.784C51.3626 552.975 52.1835 548.5 52.8492 547.726L54.3255 547.45L54.6208 546.489L54.1694 546.107L52.6637 546.293L52.276 545.684C52.9181 544.541 53.3312 543.985 54.1192 542.93C53.409 540.635 52.9648 543.108 51.7077 539.616C50.6485 536.676 52.2457 530.471 51.2746 529.399L50.1869 529.43C49.9454 528.122 50.2958 526.868 50.5333 525.533C51.2799 526.383 51.7006 527.419 52.1951 528.443L52.4721 528.336C51.9354 521.997 53.2658 519.542 53.1996 513.794C53.1929 513.221 53.0208 513.599 53.3058 512.647C53.309 513.02 52.4508 504.618 52.5361 504.978C49.2189 503.457 51.589 495.886 51.8206 492.874C48.209 490.259 50.2505 486.567 48.9694 485.112C45.7241 481.434 47.0906 476.456 44.7792 473.809C40.6944 472.332 42.9387 469.566 44.0033 466.505C44.5684 464.882 45.6094 463.004 46.6117 461.59C46.3209 460.829 46.2871 460.754 46.1675 459.948C46.7687 459.708 47.365 459.45 47.956 459.183C48.0991 457.226 46.8292 456.212 46.7883 454.201L48.04 454.664C48.7226 452.511 44.3025 449.704 44.0486 448.236C43.7227 446.359 46.4298 442.649 46.4872 440.536L45.1083 440.777C44.8637 438.81 47.6527 428.539 47.5473 426.791C47.2854 422.419 44.8286 413.718 45.7806 408.892C45.8762 408.407 46.6593 408.344 47.297 408.162L47.3886 407.624C46.0092 406.672 46.5108 408.255 44.5716 407.94C44.3777 406.908 45.7606 403.834 46.1248 402.886C48.4776 396.77 46.71 400.226 45.5396 395.796C45.4991 395.645 46.4659 389.244 46.5174 388.412C46.5072 388.576 45.1412 386.01 44.9504 385.583C50.2812 378.946 40.9568 377.692 44.4239 372.158C44.1046 371.21 44.1896 371.513 42.9832 370.881L43.0401 370.125L44.8401 368.635L42.9418 368.137L44.0433 366.798C42.4366 364.196 44.2025 365.77 45.9198 363.399C45.7517 360.722 44.8063 361.811 44.3234 359.463L45.6099 358.199C44.9873 355.499 37.7244 350.068 35.4686 347.684C35.2552 341.176 43.7222 338.547 46.063 335.144C45.4747 334.472 45.4369 334.455 45.042 333.663C45.5574 333.022 46.0501 332.529 46.6197 331.946C43.8489 329.998 47.035 331.617 46.0808 327.938C46.5953 325.941 46.1835 326.323 47.4931 325.185C47.6438 323.588 46.1048 324.544 45.8642 322.115C47.3597 319.976 47.321 321.461 48.9147 319.904C47.815 317.365 48.6786 317.952 48.1747 316.964L46.6775 318.401L46.3663 318.179C51.0789 312.685 46.8843 314.633 48.2441 311.266L49.6533 311.141L49.8267 310.141C47.3748 306.271 50.3643 305.172 50.7614 301.164C50.8637 300.132 48.8289 295.96 48.4705 293.646L48.9498 293.175C49.5581 293.406 49.844 293.482 50.4782 293.638L50.7334 293.033C49.6978 291.965 49.4807 291.818 48.8315 290.515C48.9969 288.051 49.5212 290.528 51.4627 288.095L51.267 287.459L49.8089 287.592L49.3709 287.108C49.6386 283.691 49.973 282.762 51.0745 279.47L50.9758 279.452C51.4951 276.063 51.6379 275.373 50.7859 272.099C51.6299 270.987 52.6486 269.924 52.8959 268.607C51.7944 267.5 51.0705 267.713 49.2664 267.42C47.2867 262.522 47.6709 265.249 44.676 263.096L45.0429 261.864C42.7426 259.101 38.1985 256.01 35.9159 252.963C32.0282 247.772 29.3828 242.187 25.3976 236.898C23.4811 234.355 21.1794 232.925 18.5874 230.106C11.3188 222.199 3.27636 209.555 0.376185 199.075C0.142731 198.232 2.87215 194.91 2.83658 193.197C1.34025 193.241 1.69421 194.574 0 195.189C0.391759 190.115 3.33729 184.971 2.66049 179.82C2.55999 179.055 2.58979 179.324 2.96331 178.585C3.80909 178.828 4.44007 178.998 5.30985 179.186C5.26494 176.448 2.83257 176.433 2.53686 174.254L3.64144 174.521C5.53353 171.468 3.86288 171.29 7.95701 168.009C8.51107 167.471 8.26516 167.753 8.40701 166.716L7.08455 165.224L7.22775 164.588C8.71029 164.005 8.00592 164 9.4062 164.439C9.86689 165.08 10.0608 165.411 10.2831 166.169C10.8447 165.012 11.2916 164.184 11.9506 163.08C13.587 163.189 13.893 163.228 14.8032 161.835L14.2465 160.78L14.5911 160.23C20.4662 160.351 18.2757 159.351 19.8819 156.006L20.9348 156.919C20.9362 155.845 21.0509 156.357 20.4724 155.359L18.796 155.364L18.5412 154.7C20.074 152.94 19.977 153.037 18.6114 151.475L18.6924 150.326C21.7424 151.481 21.9638 152.522 23.803 153.302L23.9088 153.568C24.6443 155.465 24.2979 157.486 26.0868 158.752L26.7734 158.161L26.0202 156.645L26.528 156.455L26.9024 156.904C27.3888 157.481 27.721 157.8 28.2653 158.318C30.4367 157.825 29.272 156.606 30.7146 157.75C33.5191 159.976 34.6402 161.05 37.8641 162.719C33.5289 164.595 31.4465 163.566 27.0189 164.859L26.5991 164.844C25.1375 164.748 22.4601 164.095 21.6001 164.513L21.6628 165.891L21.1207 166.011C10.2991 168.469 11.9173 179.694 11.3721 188.21C11.2569 190.006 10.2827 191.592 9.83976 193.254C9.74282 194.522 9.63921 195.341 10.1359 196.553L10.3752 197.06C8.31809 197.995 7.84317 197.348 7.35759 198.639C9.39464 201.439 10.5744 206.332 12.1063 208.08C14.733 211.077 18.0547 214.601 20.7138 217.952L19.7267 219.034C20.7374 220.416 21.1692 220.231 22.8185 219.931C23.9155 221.708 24.1845 224.201 25.3442 224.707L26.4875 224.125C28.0479 225.5 27.697 227.024 28.5295 227.622C33.5578 231.232 36.9574 234.788 39.7993 240.397C40.6019 241.981 43.9001 248.679 45.2546 249.111L45.5703 247.945C46.7762 248.145 46.4334 248.132 47.4913 249.186C47.4868 250.187 47.397 250.16 46.8727 251.041L47.268 251.677L48.4767 250.85C49.7062 251.321 51.721 254.689 53.2681 256.072C55.5746 258.132 60.3255 260.681 62.3172 262.567L62.4604 264.083C63.3595 264.199 63.7646 264.012 64.626 263.768C66.2223 264.591 66.8231 266.01 67.6253 267.66C70.0443 268.318 70.6126 267.98 72.1743 269.461C75.2603 279.768 62.1504 274.426 59.682 275.422C59.0315 277.219 60.5398 279.657 60.3259 281.191C59.8617 284.519 58.9826 288.54 58.3191 291.818C58.907 292.072 58.6046 291.978 59.3205 291.907C59.8203 296.071 57.4529 295.435 59.8235 298.326C58.9008 299.838 58.2724 298.54 58.336 299.216C58.6971 303.068 59.0671 307.129 59.0706 311.008C59.0711 311.453 57.5125 312.538 57.1105 312.823C57.6966 314.633 58.4218 312.703 58.5779 315.074C57.9589 315.43 57.5712 315.665 57.1136 316.221C57.6797 320.283 58.1701 319.878 55.8445 322.849C55.6924 323.04 55.8116 327.791 55.9579 328.285L57.4213 327.213C57.9354 329.455 54.2913 331.421 56.2794 333.738C60.5532 334.214 64.3271 329.295 67.1375 331.981L65.7683 333.445C66.7003 333.792 66.7626 333.779 67.7596 333.894C67.7783 335.384 66.1498 335.166 64.6286 336.554L64.5126 336.986L65.2298 337.177L67.3567 335.785C68.8046 336.697 67.2326 337.124 69.1034 337.866C69.8255 337.502 70.011 337.404 70.6629 336.932L71.104 337.181C71.6189 337.471 71.8817 337.6 72.41 337.831L72.9672 337.444L72.8858 336.399C74.6503 336.554 74.8419 337.8 76.1693 338.778C76.5628 339.067 80.0828 336.296 80.1936 336.327C83.8337 337.35 85.2077 339.922 88.4681 336.456C89.1151 335.767 93.3106 336.149 94.4845 335.954C94.5757 335.94 96.2156 333.912 96.3121 333.787L97.0325 333.876C97.3367 334.819 97.3247 334.833 97.3758 335.829C99.6926 335.54 100.961 333.409 105.015 333.392C108.454 333.374 113.73 330.838 117.519 331.216C119.41 331.225 119.495 331.052 120.491 329.33L121.519 328.948C121.835 329.851 121.726 329.393 121.472 330.514C123.104 330.238 123.559 328.734 124.064 328.641C124.905 328.481 133.808 327.916 133.909 327.876L134.415 327.079L134.083 326.377C130.769 325.425 128.753 326.697 126.789 323.979C125.932 320.981 126.171 316.675 125.786 313.49C125.193 308.593 124.814 303.019 124.23 298.193C123.744 295.991 122.022 288.802 122.811 287.068C123.798 284.897 124.276 285.689 124.468 282.077L124.495 281.489C125.96 278.785 124.334 272.402 124.485 268.968C125.038 268.914 125.34 268.874 125.9 268.781C126.924 263.745 126.628 262.335 126.894 257.282C126.951 256.201 127.879 256.802 128.132 254.867L127.434 254.07C123.633 252.767 115.543 256.69 111.527 258.283C110.982 259.867 111.165 259.382 111.862 261.37C110.265 262.7 99.7388 265.436 97.3971 265.609C96.5336 264.853 96.269 264.471 95.1324 264.319C93.5881 265.191 92.8437 265.743 91.0419 265.894C87.4702 263.897 87.2554 265.262 84.1658 264.186C83.9835 263.007 83.272 262.269 82.6117 261.286C82.7242 259.675 82.6789 260.187 83.7665 258.683C84.9712 258.63 90.032 258.585 90.8706 259.155L90.1396 260.605L90.6101 260.939C91.3967 259.715 91.4927 259.408 92.6471 258.59L93.2612 258.906L93.1083 260.489L93.6094 260.472L95.176 258.554C97.2446 258.047 96.7172 259.524 98.6036 259.093C101.927 258.327 106.071 255.094 109.328 255.316C110.913 255.427 110.425 253.114 111.97 251.406L113.526 252.224C114.693 251.491 117.257 249.04 118.407 247.99C118.183 247.076 117.798 245.592 118.278 244.8C119.454 242.859 122.655 242.602 124.664 242.159C126.203 241.82 127.194 240.108 127.54 238.702C128.45 235.002 128.208 230.301 128.931 226.564C129.492 223.668 131.689 219.829 132.04 216.92C132.45 213.526 132.111 205.39 133.593 202.709C138.279 194.232 134.928 197.492 134.304 193.981C134.835 193.782 135.224 193.703 135.791 193.687C135.888 191.496 134.664 189.612 134.259 187.153C134.867 186.447 135.14 186.274 135.36 185.375C134.358 185.155 133.941 185.173 133.249 184.418C134.307 181.724 133.641 182.524 132.234 180.001C131.158 178.071 133.512 173.556 132.34 171.337L131.248 171.735L130.735 171.369L130.874 170.452L132.647 169.27L132.637 168.446C131.903 168.109 131.106 168.226 130.273 168.246L129.795 167.638L130.557 167.199C130.424 164.907 127.364 158.404 126.27 156.144C126.71 155.229 126.711 155.3 126.711 154.291L125.872 153.516L125.148 153.35C120.665 148.319 114.041 146.883 108.719 142.496C109.929 141.453 110.306 141.121 110.3 139.472C109.291 138.165 108.02 137.99 106.575 137.039L106.294 136.851C103.941 137.319 103.966 138.673 101.868 138.607C99.4738 135.843 101.378 132.572 100.811 131.714C99.3608 129.659 93.4195 125.756 92.8832 123.53C90.5696 113.929 82.9528 119.19 76.3743 119.827C70.9225 120.355 72.4482 117.559 69.8962 115.435C68.9864 115.582 68.922 115.632 68.0188 115.526L67.7093 114.365C68.6983 113.154 69.3364 114.629 70.4116 113.776L69.7526 113.152C68.3074 113.184 67.7538 113.313 66.4584 112.774C64.7931 109.11 66.1658 104.211 66.0058 100.453C65.9831 99.9167 64.0479 96.2607 63.6014 94.8871L64.5281 94.1682C64.7949 92.5072 62.7343 92.2875 62.475 90.3565C63.3324 89.9615 63.4018 90.0371 63.8562 89.24L63.444 88.6457L61.9988 88.942C61.3207 87.793 60.5945 83.5267 61.1575 82.416C62.295 80.1723 61.4354 78.4593 61.2473 76.0505C61.0401 73.3985 60.2993 70.7754 60.5283 68.11C60.4589 66.3778 63.4738 65.0634 63.0144 63.2885C60.2472 52.5981 60.9952 44.0441 60.8804 33.2451L59.3619 32.3701C58.8963 30.3835 60.6768 30.6246 59.9893 29.5797C54.6732 21.4964 58.9217 18.275 60.2499 9.57065L60.3188 9.09914C58.7882 7.90968 57.5418 8.29401 56.0828 6.56098Z" fill="#050505"/>
<path d="M60.3188 9.0992C62.5235 8.62635 63.7953 6.89199 65.1031 5.24658C66.6381 5.97565 65.0421 6.0059 66.6394 7.43022C67.4229 7.15488 67.4612 7.08815 68.2798 7.08326L69.2434 8.59388C69.5089 10.5409 69.6356 10.9577 70.3453 12.7948C68.9339 14.6003 68.8454 11.947 68.757 14.4051C69.6218 14.962 69.6236 14.8712 70.6757 14.8703C70.473 17.2306 69.8357 17.6358 71.9728 19.0428C71.6798 20.2665 71.7136 19.9356 70.7531 20.9898L71.0853 21.3937C71.7065 21.1415 71.9857 21.0103 72.5718 20.6855C73.1917 21.4506 73.1468 21.4253 73.4634 22.3679L74.2322 22.4319L74.3896 21.2367L74.4937 21.2576L74.27 21.4457C75.2243 21.6717 75.3928 21.7095 76.0612 22.4319L75.1314 23.4821C75.5769 24.7775 76.4303 25.4887 77.8728 25.5661L78.3553 23.5702L78.8924 23.5644C79.5821 25.14 78.53 25.7183 78.936 27.0367C79.8778 30.0958 81.2101 33.2407 82.2626 36.278C81.6045 36.9061 81.9038 36.7139 80.9731 36.9367C81.1158 37.4581 84.86 42.7355 85.5381 44.2964L84.3606 45.6793L84.5638 46.5392L85.876 46.7362C86.6871 47.8474 86.5022 47.2509 86.5377 48.5564L85.2406 50.9781C87.2243 52.1764 87.9411 49.8544 88.4245 51.4113C87.343 52.9455 86.8317 53.3565 87.4933 55.352L86.1397 54.8325C86.2998 56.4067 87.5778 56.6838 88.9541 57.2434C88.9061 57.9195 88.6806 61.9541 88.4934 62.3406C85.7716 67.9712 93.6223 80.8436 91.812 84.9488C92.6569 85.7095 93.1785 85.8154 94.2302 86.205L94.3507 86.8096C93.4484 86.919 93.436 86.8451 92.6222 87.1828L92.7494 88.0568C93.5583 88.4323 93.5138 88.4127 94.4045 88.4905L94.8438 89.2761C94.6006 90.1186 94.5419 90.0559 93.8317 90.6048C94.207 92.199 94.4062 91.7733 95.871 93.1145C94.2973 94.9627 95.9177 96.9564 96.9333 98.9781C100.345 100.961 102.364 105.481 102.35 109.335L103.437 110.497L104.044 111.508C102.831 113.416 101.527 114.531 103.525 116.365L104.224 116.323L105.29 114.801C106.699 118.488 102.899 117.095 108.236 123.368L110.135 122.581L110.464 123.236C110.001 123.724 109.593 124.204 109.236 124.776C109.903 126.696 111.613 125.884 111.686 127.065C111.884 130.25 109.125 130.307 113.614 131.656L113.947 132.359C112.409 134.952 114.727 136.122 115.771 138.729C115.33 138.745 113.675 139.132 113.495 139.074C109.388 137.751 110.817 135.926 106.294 136.851C103.941 137.319 103.966 138.673 101.868 138.607C99.4738 135.843 101.378 132.572 100.811 131.714C99.3608 129.659 93.4195 125.756 92.8832 123.53C90.5696 113.929 82.9528 119.191 76.3742 119.827C70.9225 120.355 72.4482 117.559 69.8962 115.435C68.9864 115.582 68.9219 115.632 68.0188 115.526L67.7093 114.365C68.6982 113.154 69.3364 114.629 70.4116 113.776L69.7526 113.152C68.3074 113.184 67.7538 113.313 66.4584 112.774C64.7931 109.11 66.1658 104.211 66.0057 100.453C65.9831 99.9167 64.0478 96.2607 63.6014 94.8871L64.5281 94.1683C64.7949 92.5073 62.7343 92.2876 62.475 90.3566C63.3324 89.9616 63.4017 90.0372 63.8562 89.2401L63.444 88.6458L61.9988 88.942C61.3207 87.793 60.5945 83.5267 61.1575 82.416C62.295 80.1723 61.4354 78.4593 61.2473 76.0506C61.0401 73.3985 60.2992 70.7754 60.5282 68.11C60.4589 66.3779 63.4738 65.0634 63.0144 63.2886C60.2472 52.5981 60.9951 44.0441 60.8804 33.2451L59.3619 32.3702C58.8963 30.3836 60.6768 30.6247 59.9893 29.5798C54.6732 21.4964 58.9216 18.275 60.2499 9.57071L60.3188 9.0992Z" fill="white"/>
<path d="M103.437 110.497C102.803 110.866 102.425 111.043 101.754 111.342C101.134 110.335 99.4568 107.114 99.033 106.081C97.8133 103.108 95.0016 103.436 94.2239 101.015C95.1368 100.349 96.0404 99.6703 96.9333 98.9781C100.345 100.961 102.364 105.481 102.35 109.335L103.437 110.497Z" fill="#1D1D1D"/>
<path d="M106.294 136.851C110.817 135.926 109.388 137.751 113.495 139.074C113.675 139.132 115.33 138.745 115.771 138.729C116.515 139.683 117.302 139.691 118.512 139.967C117.561 140.006 116.961 139.914 116.213 140.481C116.222 143.634 121.917 142.593 121.106 146.772L121.519 147.168C123.801 149.598 125.051 150.358 125.872 153.516L125.148 153.35C120.665 148.319 114.041 146.883 108.719 142.496C109.929 141.453 110.306 141.121 110.3 139.472C109.291 138.165 108.019 137.99 106.575 137.039L106.294 136.851Z" fill="#171717"/>
<path d="M56.0828 6.56098C56.1789 6.13839 56.0846 5.73493 56.0312 5.30835C60.12 2.05846 60.5821 -1.6011 67.7306 0.744461L68.2198 0.907713L69.2465 0.224907C70.6699 1.65324 72.0489 3.36625 73.358 4.91735C71.9488 4.74387 70.2133 4.57127 69.0149 3.80884C66.398 2.14431 66.9907 -0.388065 64.1835 1.62788C63.8535 4.42493 68.1046 4.66469 69.4733 7.56228L69.2434 8.59383L68.2798 7.08321C67.4612 7.0881 67.4229 7.15482 66.6394 7.43017C65.0421 6.00584 66.6381 5.97559 65.1031 5.24653C63.7953 6.89193 62.5235 8.62629 60.3188 9.09914C58.7882 7.90968 57.5418 8.29401 56.0828 6.56098Z" fill="#171717"/>
<path d="M129.821 306.315C129.811 305.692 130.278 303.433 130.08 302.966C129.207 300.915 127.391 298.144 126.948 295.884C126.614 294.189 127.857 292.881 127.28 290.533C126.645 289.883 126.322 289.723 126.188 288.847C128.42 287.842 128.603 287.157 130.493 286.076C130.971 288.829 130.884 288.745 128.838 290.835L128.775 291.921C129.49 292.25 129.878 292.401 130.366 293.033C130.664 295.928 131.605 304.224 129.821 306.315Z" fill="#171717"/>
<path d="M171.465 453.623C174.089 451.51 172.987 448.076 172.348 445.292C173.192 444.811 172.757 444.882 173.687 445.02L174.54 444.237L176.134 444.34C177.077 445.968 178.623 448.721 178.733 450.545L176.633 453L175.438 451.564C173.215 452.209 173.999 453.352 171.268 454.504L171.465 453.623Z" fill="#171717"/>
<path d="M118.513 139.967C120.359 142.175 126.875 139.988 126.426 146.857L126.116 147.359C125.105 147.188 124.541 146.614 123.71 145.985C122.273 146.159 122.776 146.032 121.519 147.168L121.106 146.772C121.917 142.593 116.222 143.634 116.213 140.481C116.961 139.914 117.561 140.006 118.513 139.967Z" fill="#1D1D1D"/>
<path d="M85.3273 22.3816C88.6597 28.465 86.2416 29.3431 87.9242 32.7278C84.6087 32.113 86.8254 31.7718 84.6194 30.0953L82.7104 30.8706L82.2693 30.3813C82.3395 28.3471 83.7998 23.9064 85.3273 22.3816Z" fill="#1D1D1D"/>
<path d="M163.427 320.719C165.927 320.781 169.102 323.192 170.742 325.082C170.532 325.954 170.313 326.097 169.746 326.79L169.994 327.649C171.128 328.112 171.303 328.138 172.521 328.378C172.152 329.579 172.18 329.25 170.963 330.189L170.299 329.602L169.886 329.833C166.707 326.096 165.41 325.198 163.427 320.719Z" fill="#4E4D52"/>
<path d="M124.495 281.49C125.991 281.997 127.162 282.152 127.956 283.416C127.918 286.138 123.201 287.241 123.372 290.128C123.545 293.019 124.827 295.106 124.23 298.193C123.744 295.991 122.022 288.802 122.811 287.068C123.798 284.897 124.276 285.689 124.468 282.077L124.495 281.49Z" fill="#171717"/>
<path d="M175.288 431.146C172.861 429.336 168.445 425.119 171.547 422.076L173.613 422.121C173.697 424.972 174.999 427.361 175.288 431.146Z" fill="#1D1D1D"/>
<path d="M173.581 434.175L174.487 433.584C176.144 435.319 176.999 438.81 176.536 441.261C175.78 442.365 175.739 442.471 174.687 443.263C174.364 442.009 174.583 440.301 173.939 438.98C172.897 436.844 173.667 435.964 173.581 434.175Z" fill="#171717"/>
<path d="M52.536 504.978C53.8576 504.889 53.3475 504.809 54.6317 505.712C55.6323 508.052 55.8599 510.623 57.1975 512.375C54.718 511.855 55.8453 511.784 53.3057 512.647C53.3088 513.02 52.4506 504.618 52.536 504.978Z" fill="#1D1D1D"/>
<path d="M3.64136 174.521C5.53345 171.468 3.8628 171.29 7.95692 168.009C9.74496 172.097 5.14302 172.548 4.95003 174.413C5.77535 174.385 5.83094 174.131 6.64469 173.559C6.99154 174.514 6.33519 175.866 5.49787 176.382C4.35906 175.65 4.42043 175.657 3.64136 174.521Z" fill="#171717"/>
<path d="M138.816 207.844C138.578 205.365 139.037 201.09 141.33 199.589L142.268 200.055C142.354 204.199 141.65 204.657 138.816 207.844Z" fill="#1D1D1D"/>
<path d="M10.1359 196.553C8.18736 196.138 7.53459 195.779 7.18774 193.765C7.9557 191.869 8.17848 190.935 8.65339 188.965L9.19189 189.621C9.29817 191.063 9.35775 191.522 9.74551 192.923L9.83978 193.254C9.74284 194.522 9.63923 195.341 10.1359 196.553Z" fill="#1D1D1D"/>
<path d="M143.493 315.39L143.688 315.363C145.23 316.715 150.495 314.842 151.89 317.836C151.057 318.833 150.374 318.739 148.919 319.139C149.458 320.505 149.431 320.594 148.881 321.808C147.652 322.364 145.724 321.826 144.293 321.59L144.114 322.195L145.179 323.543C142.885 324.188 136.709 327.222 135.013 325.572C135.484 323.561 137.222 321.911 139.231 321.466L139.509 321.408C140.36 320.354 140.887 319.851 141.11 318.53L141.31 317.342L141.409 316.706C142.382 316.23 142.653 316.017 143.493 315.39Z" fill="white"/>
<path d="M48.0017 377.14C49.0231 377.754 50.4879 379.991 51.2576 381.054C48.6785 380.423 48.6683 379.502 48.0017 377.14Z" fill="#1D1D1D"/>
<path d="M56.0829 6.56104C57.5418 8.29407 58.7883 7.90974 60.3188 9.0992L60.2499 9.57071C58.9217 18.275 54.6733 21.4964 59.9893 29.5798C60.6768 30.6247 58.8963 30.3836 59.3619 32.3702L60.8805 33.2451C60.9952 44.0441 60.2472 52.5981 63.0145 63.2886C63.4738 65.0634 60.4589 66.3779 60.5283 68.11C60.2993 70.7754 61.0401 73.3986 61.2473 76.0506C61.4354 78.4593 62.295 80.1723 61.1575 82.416C60.5946 83.5268 61.3207 87.793 61.9988 88.942L63.444 88.6458L63.8562 89.2401C63.4018 90.0372 63.3324 89.9616 62.4751 90.3566C62.7343 92.2876 64.7949 92.5073 64.5281 94.1683L63.6014 94.8871C64.0479 96.2607 65.9831 99.9167 66.0058 100.453C66.1659 104.211 64.7932 109.11 66.4585 112.774C67.7538 113.313 68.3074 113.184 69.7526 113.152L70.4116 113.776C69.3364 114.629 68.6983 113.154 67.7093 114.365L68.0188 115.526C68.922 115.632 68.9864 115.582 69.8963 115.435C72.4482 117.559 70.9226 120.355 76.3743 119.827C82.9528 119.191 90.5696 113.929 92.8833 123.53C93.4195 125.756 99.3609 129.659 100.811 131.714C101.378 132.572 99.4738 135.843 101.868 138.607C103.966 138.673 103.941 137.319 106.294 136.851L106.575 137.039C108.02 137.99 109.291 138.165 110.3 139.472C110.306 141.121 109.929 141.454 108.719 142.496C108.21 142.788 106.978 143.535 106.506 143.743C106.682 142.766 106.661 142.836 106.25 141.923C104.265 141.418 102.387 143.24 100.831 144.373C100.143 143.989 99.6112 143.678 98.865 143.406L98.3906 143.239C95.6069 144.888 95.6331 147.68 93.9812 150.472C92.3336 153.256 90.9329 155.401 88.9306 157.93C90.233 158.793 91.0277 159.116 91.6493 160.532C91.3763 163.539 90.1178 163.184 90.4718 165.442C91.23 164.583 91.3803 164.318 92.4235 163.777L93.4965 165.813C96.1739 165.525 96.2704 165.28 98.2323 166.606C98.994 168.237 98.2816 170.302 98.3972 172.688C95.0942 176.488 88.8474 181.695 87.8629 186.65C86.894 191.524 86.7343 213.659 92.789 214.886L93.8825 213.336C94.7998 213.354 94.9724 213.494 95.8168 213.83C96.9218 213.383 97.1037 212.89 97.7707 211.897L98.5511 211.866L99.4996 212.913C102.15 211.165 100.576 207.335 106.106 205.824C106.918 205.03 110.132 201.24 110.432 201.077C115.35 198.407 121.508 194.082 126.202 191.332L126.773 191.752C126.927 194.032 126.829 199.746 125.138 201.218C123.753 202.423 122.311 201.529 120.825 203.052L120.937 204.571C118.603 206.099 111.312 210.411 110.214 212.661C108.097 216.999 106.95 214.379 104.682 216.235C104.483 218.061 103.854 218.486 102.635 219.702L103.261 220.454L102.691 220.553C101 220.854 100.273 220.904 98.8806 221.983L98.4644 220.902C96.4571 221.854 95.2489 224.645 90.8369 222.469C84.6466 219.416 82.9163 219.868 79.8067 214.179L79.1677 214.113L79.2656 213.585L79.7458 213.353C77.7612 211.121 78.0832 210.44 78.4714 207.638C79.5239 206.58 79.8832 206.203 79.901 205.018C78.6875 204.189 78.4371 204.12 77.7176 202.897C78.1592 201.752 78.6221 201.233 79.3483 200.231C78.792 199.669 78.7519 199.695 78.4407 198.981C79.7507 198.154 79.901 198.118 80.7979 196.9L80.3319 196.364L79.0561 196.799C78.4118 195.884 77.7915 194.101 77.3561 193C78.1819 193.773 77.703 193.561 78.8502 193.633C78.7782 192.627 78.8493 191.38 78.5781 190.483L76.7233 191.118L77.0573 189.808C76.2467 188.89 75.179 188.435 73.9232 187.858C71.8168 186.892 72.438 188.656 71.9053 188.681C70.2342 188.758 68.89 188.568 67.0997 189.245C69.5543 194.109 66.1841 193.878 66.0974 196.843L66.4976 196.879L68.255 194.626L68.5893 194.858C68.4315 199.427 65.9084 197.769 65.036 200.035L65.7359 201.119L65.506 202.077C60.7413 205.914 63.9327 202.567 60.9334 203.894L61.0143 205.151C57.1016 207.026 51.0634 201.101 48.7093 200.395L48.2361 200.781L48.9605 202.34C47.59 202.672 44.2883 200.897 43.8063 201.123C41.4006 202.252 35.5705 205.249 33.9687 201.702C34.8243 201.862 34.9003 201.947 35.7377 201.777C35.2667 201.455 34.798 201.13 34.332 200.802C32.2434 199.332 31.5515 199.094 31.1553 196.833C31.7538 195.61 31.957 195.366 32.086 194.045C31.049 192.688 30.37 191.573 29.4855 190.134L29.6527 189.481C32.4777 188.287 39.4133 188.668 42.3913 189.583C47.667 191.204 52.9822 196.294 58.5579 196.404C60.4256 196.441 59.8444 197.597 61.6893 197.924C62.7654 196.919 62.7783 196.876 63.115 195.472L61.3816 193.01C62.0219 191.185 62.9091 186.938 60.45 186.167L60.6039 185.229C61.3723 184.741 62.0375 183.698 62.6009 182.943C59.9329 175.935 44.8735 165.427 37.8641 162.719C34.6402 161.05 33.5192 159.976 30.7146 157.75C29.2721 156.606 30.4367 157.825 28.2653 158.318C27.721 157.8 27.3889 157.481 26.9024 156.904L26.528 156.455L26.0202 156.645L26.7734 158.161L26.0869 158.752C24.2979 157.486 24.6443 155.465 23.9088 153.568L23.803 153.302C21.9638 152.522 21.7424 151.481 18.6924 150.326C18.744 150.222 18.7951 150.118 18.8467 150.015L19.0899 149.49C21.2435 144.935 18.9618 144.8 23.2441 141.576C25.5968 138.668 29.1805 135.717 32.998 135.612L32.7686 133.951C34.7287 132.552 44.7521 135.281 47.0938 136.597C48.0792 137.15 49.2953 137.806 50.3888 138.084C50.0757 137.414 49.7147 136.875 49.3287 136.247L49.5008 135.899L52.3934 136.478L52.2849 135.662C51.5276 134.896 51.356 134.83 50.4515 134.32L50.1869 134.173C50.9838 133.744 51.5045 133.551 52.071 132.838C51.1287 132.06 50.6658 131.817 50.194 130.681C53.1436 121.096 52.433 121.082 60.0285 114.483C60.1192 112.785 60.1939 112.368 59.7039 110.758L58.9688 110.652L58.7634 110.154L59.6763 109.87C60.3882 108.657 60.2041 102.979 59.8955 101.481L58.3734 100.604L58.2017 99.9452C58.9146 99.7197 59.3121 99.5644 59.9991 99.2673L59.7652 98.588L58.6549 98.774L58.2298 98.1601C58.6277 97.1437 58.67 97.1384 58.7536 95.9952L57.7886 95.9863L57.3987 95.48L58.4201 94.1571L58.2258 93.3774C57.3102 92.6732 56.6036 92.3067 56.2123 91.2418C57.4663 87.54 56.3146 89.3348 54.748 87.9332C55.1019 85.3327 55.4176 80.4944 55.2962 77.8063C55.2162 76.0399 52.1519 72.3906 52.7194 69.6758L53.932 69.7181C54.792 67.8729 53.7781 65.011 54.7279 63.7841C60.2312 56.6758 55.001 55.3787 54.7524 52.9469L56.0411 52.3748C56.3399 50.539 54.4687 49.3086 54.6021 47.8634C54.6101 47.2011 56.1113 41.0229 55.7489 40.7796C53.4028 40.1012 56.2336 35.0164 55.6667 34.0801C53.1396 29.9059 50.1763 21.9617 52.8212 17.4187C53.2561 16.6728 53.433 16.8996 53.7599 15.6541C53.2187 15.2137 52.6624 14.8232 52.0732 14.4504C53.2997 11.6414 54.0787 8.44309 56.0829 6.56104Z" fill="#050505"/>
<path d="M32.998 135.612L32.7686 133.951C34.7287 132.552 44.7521 135.281 47.0938 136.597C48.0792 137.15 49.2953 137.805 50.3888 138.083C48.1468 138.927 48.8533 138.558 47.3824 140.885L47.4513 141.656C50.6832 142.447 52.0603 141.359 53.9622 144.003C54.2188 145.422 54.0547 145.635 53.6082 147.068C55.1664 148.582 64.662 155.053 67.4052 157.09L68.2443 156.122L68.902 156.397C69.3715 158.7 68.9664 158.496 70.4361 159.798C71.7301 160.038 71.8777 160.042 73.1993 160.024C74.9713 161.613 77.0062 164.059 78.848 164.996L79.5617 164.806L78.7017 164.083C80.303 164.253 81.4538 164.499 82.9155 165.252L83.1987 166.256C82.4641 167.066 81.8251 167.77 81.0389 168.529L81.2284 168.501L81.6526 168.931L82.3352 168.786C81.8696 171.119 78.5034 179.292 76.4049 181.356C75.3818 181.266 74.8811 180.904 73.9797 180.426C71.7345 181.316 72.2441 182.752 70.0675 182.836L69.2435 181.902C66.5007 182.545 65.3855 182.795 62.6009 182.943C59.9329 175.935 44.8735 165.427 37.8641 162.719C34.6402 161.05 33.5192 159.976 30.7146 157.75C29.2721 156.606 30.4367 157.825 28.2653 158.318C27.721 157.8 27.3889 157.481 26.9024 156.904L26.528 156.455L26.0202 156.645L26.7734 158.161L26.0869 158.752C24.2979 157.486 24.6443 155.465 23.9088 153.568L23.803 153.302C21.9638 152.522 21.7424 151.481 18.6924 150.326C18.744 150.222 18.7951 150.118 18.8467 150.015L19.0899 149.49C21.2435 144.935 18.9618 144.8 23.2441 141.576C25.5968 138.668 29.1805 135.717 32.998 135.612Z" fill="white"/>
<path d="M32.998 135.612L32.7686 133.951C34.7287 132.552 44.7521 135.281 47.0938 136.597C48.0792 137.15 49.2953 137.805 50.3888 138.083C48.1467 138.927 48.8533 138.558 47.3824 140.885L47.4513 141.656C50.6832 142.447 52.0603 141.359 53.9622 144.003C54.2188 145.422 54.0547 145.635 53.6082 147.068C52.0706 147.054 47.9226 144.384 46.7491 143.28C44.134 141.172 42.6025 141.601 40.9234 139.451C39.6748 140.445 39.902 140.614 38.6596 140.62C38.1794 139.813 37.901 139.4 37.3429 138.642L36.2548 138.529L36.1979 139.354L35.2116 139.309C35.4704 138.543 35.4677 137.799 35.5238 136.99C34.618 135.903 34.573 136.165 32.998 135.612Z" fill="#171717"/>
<path d="M40.9233 139.451C41.9955 138.188 42.0484 137.979 43.5665 137.564C46.4209 138.139 46.5912 140.746 46.749 143.28C44.1339 141.172 42.6024 141.601 40.9233 139.451Z" fill="#1D1D1D"/>
<path d="M32.998 135.612C34.5731 136.165 34.618 135.903 35.5238 136.99C35.4677 137.799 35.4704 138.543 35.2116 139.309C32.4302 141.336 30.1432 142.013 27.6508 143.84C26.0353 144.336 25.4835 145.694 23.7644 145.708C22.976 144.694 23.225 142.96 23.2441 141.576C25.5969 138.668 29.1805 135.717 32.998 135.612Z" fill="#1D1D1D"/>
<path d="M23.2441 141.576C23.2249 142.96 22.9759 144.694 23.7643 145.708C25.4835 145.694 26.0353 144.336 27.6508 143.84C27.3738 146.945 26.3919 146.558 24.6919 148.803C23.5505 150.311 26.5071 151.151 23.803 153.302C21.9638 152.522 21.7424 151.481 18.6924 150.326C18.744 150.222 18.7951 150.118 18.8467 150.015L19.0899 149.49C21.2435 144.935 18.9618 144.8 23.2441 141.576Z" fill="#171717"/>
<path d="M88.9307 157.93C88.2387 159.346 88.1476 160.144 86.9683 160.879L86.717 159.651C81.9368 157.205 77.6439 153.442 73.1883 150.72C67.7517 147.398 61.7757 144.841 56.3062 141.426L56.2662 139.393C55.6654 140.1 55.7232 140.077 54.8899 140.471L54.0175 140.019C53.7044 138.325 54.2749 140.017 55.4057 138.013C54.865 137.368 54.3732 136.961 54.3051 136.149L55.2368 135.766C55.8402 136.308 55.8037 136.39 56.5886 136.468C57.4459 135.891 58.3819 135.436 58.7964 134.545C57.5419 133.331 57.9688 135.046 55.8384 134.754L55.8366 134.063L57.9906 132.476C58.2285 131.116 58.3295 131.778 57.4303 130.474L57.5673 130.019C59.04 129.604 60.2647 129.386 60.6733 127.847C60.0681 126.157 59.5412 125.983 58.1156 124.975L58.136 124.277C59.6328 123.225 59.4927 125.124 61.2212 124.529C61.0846 123.661 60.9406 122.88 60.7707 122.017L61.5026 121.581C62.8233 122.999 62.5196 122.806 64.5247 123.393L65.8854 122.51C66.4563 123.859 68.6784 126.539 70.1872 126.235C70.2072 125.375 70.0911 124.692 70.6185 124.068C72.8423 124.829 71.5808 127.646 75.2129 127.622L74.7989 126.661C76.0987 125.958 75.8501 127.66 78.4643 127.563C78.8285 126.616 78.3732 126.292 77.8151 125.005L78.0895 124.363C79.1394 124.614 79.4617 125.336 80.2986 126.398C81.6429 128.105 83.1752 125.464 85.9162 125.966C89.0592 126.541 86.3622 126.498 88.6345 128.734C90.8645 130.929 91.6223 135.843 93.7492 137.535L94.9209 136.74L95.4758 136.871L94.6852 138.479C95.0658 141.059 96.2415 141.53 98.3907 143.239C95.607 144.888 95.6332 147.68 93.9813 150.472C92.3337 153.256 90.933 155.401 88.9307 157.93Z" fill="white"/>
<path d="M79.7457 213.353C77.7611 211.121 78.0831 210.439 78.4713 207.638C80.0939 207.739 80.2762 207.791 81.5675 208.775C82.2679 210.213 82.1474 209.574 81.8926 211.203C81.0793 212.284 80.8889 212.707 79.7457 213.353Z" fill="#DDDDDD"/>
<path d="M90.4719 165.442C91.23 164.583 91.3803 164.318 92.4235 163.777L93.4965 165.813C92.1296 167.091 91.3221 168.108 89.4562 168.398L89.1765 167.579C89.4909 166.788 89.9894 166.147 90.4719 165.442Z" fill="#DDDDDD"/>
<path d="M82.9155 165.252C84.3291 164.093 83.6661 164.294 85.3755 164.432L86.3142 165.224L86.3769 166.095C85.6556 166.604 85.492 166.722 84.6973 167.095L83.8316 168.879C83.5158 167.835 83.5487 167.779 83.522 166.735L83.1988 166.256L82.9155 165.252Z" fill="#1D1D1D"/>
<path d="M37.864 162.719C44.8734 165.427 59.9328 175.935 62.6008 182.943C62.0374 183.698 61.3722 184.741 60.6038 185.229C57.491 184.84 52.1839 176.554 48.972 173.713C46.5494 175.069 43.265 169.71 40.9327 167.939C40.4787 168.223 39.8321 168.683 39.3038 168.493C35.0905 166.973 31.6061 165.169 27.0188 164.859C31.4464 163.566 33.5288 164.595 37.864 162.719Z" fill="#1D1D1D"/>
<path d="M98.3904 143.239L98.8649 143.406C99.6111 143.678 100.143 143.989 100.83 144.373C102.387 143.24 104.265 141.418 106.25 141.923C106.661 142.836 106.682 142.766 106.506 143.743C102.776 144.432 101.218 151.744 99.0548 154.677C97.9609 156.159 96.7251 158.567 95.2012 159.812C93.8432 160.922 93.5808 162.586 92.4233 163.777C91.3801 164.318 91.2298 164.583 90.4717 165.442C90.1177 163.184 91.3761 163.539 91.6492 160.532C91.0275 159.116 90.2329 158.793 88.9304 157.93C90.9328 155.401 92.3335 153.256 93.981 150.472C95.633 147.68 95.6068 144.888 98.3904 143.239Z" fill="#171717"/>
<path d="M171.268 454.504C173.999 453.352 173.215 452.209 175.438 451.564L176.633 453L177.115 452.991C177.881 452.978 178.322 452.871 179.072 452.725L179.209 452.943C178.4 453.672 178.153 453.872 177.738 454.931L178.695 456.261C177.781 458.725 175.853 460.424 175.639 462.239C178.654 463.979 177.919 464.85 177.7 468.276L176.693 468.142C175.929 469.601 176.026 469.824 176.053 471.541C177.082 471.91 177.383 471.99 178.342 472.59C177.577 473.969 176.923 473.356 175.95 474.107C176.434 474.201 176.824 474.299 177.279 474.499L176.11 476.683C176.91 477.27 176.677 477.079 177.941 477.016C177.535 479.534 175.15 478.894 175.693 480.895C176.968 481.705 178.184 482.199 178.649 483.533C178.524 488.8 173.966 492.95 174.349 495.201L174.889 495.259L177.135 492.465C176.819 495.828 176.453 499.182 176.035 502.532L176.442 502.661L177.646 500.921L177.993 501.064L177.839 501.571C177.42 502.981 177.119 503.519 177.578 504.894C178.566 506.126 179.695 506.277 181.245 506.78C181.131 507.678 180.687 508.03 180.086 508.719L180.081 509.315C181.573 510.134 181.422 509.738 181.897 510.974C181.57 512.887 180.04 515.018 178.98 516.744C180.46 517.998 180.788 516.69 180.96 518.096C180.183 518.599 180.209 518.59 179.32 518.848C179.328 521.156 182.784 522.78 181.979 526.33C180.952 527.144 179.679 527.686 178.327 527.308C177.402 525.609 177.196 520.769 175.837 518.745C173.431 515.165 179.136 511.962 176.335 508.786C173.47 505.543 171.1 495.539 172.497 491.442L173.414 491.162C173.071 488.786 170.14 486.936 170.055 484.863L171.029 483.573C170.662 481.887 170.186 480.063 170.093 478.36L170.538 478.182L171.758 479.134C172.81 472.123 166.699 466.741 171.669 456.626C171.158 455.362 170.94 455.469 171.268 454.504Z" fill="#050505"/>
<path d="M182.001 527.268L182.654 527.793C182.158 528.416 182.175 528.838 182.028 529.635L182.439 530.2L183.811 529.483L184.165 529.804C183.751 532.046 181.895 531.334 181.104 533.416C181.647 533.936 182.174 534.47 182.685 535.021C181.266 538.838 181.224 540.382 184.798 542.579L185.035 542.721C185.112 544.074 184.277 544.919 183.467 546.107L184.057 547.699L183.147 547.241C183.999 549.816 182.574 549.634 183.889 551.845L184.51 551.702L184.977 549.923C185.24 550.31 185.886 554.113 186.139 555.114C187.408 557.347 187.813 561.773 183.991 562.076C183.573 561.813 182.982 561.551 182.692 561.15C181.086 558.931 177.823 533.06 178.793 529.648C179.149 528.394 180.919 527.851 182.001 527.268Z" fill="#050505"/>
</svg>
