<svg preserveAspectRatio="none" overflow="visible" style="display: block;" width="14.5" height="14.5" viewBox="0 0 14.5 14.5" fill="none" xmlns="http://www.w3.org/2000/svg">
<path id="Union" fill-rule="evenodd" clip-rule="evenodd" d="M7.25 0C11.2541 0 14.5 3.24594 14.5 7.25C14.5 11.2541 11.2541 14.5 7.25 14.5C3.24594 14.5 0 11.2541 0 7.25C0 3.24594 3.24594 0 7.25 0ZM4.3623 7.24805C4.18426 7.55962 3.853 7.75195 3.49414 7.75195H1.02148C1.2772 10.969 3.96723 13.5 7.25 13.5C10.5328 13.5 13.2228 10.969 13.4785 7.75195H10.5771L9.21875 10.1289C8.92158 10.6489 8.16445 10.6284 7.89648 10.0928L5.48828 5.27637L4.3623 7.24805ZM7.25 1C3.96591 1 1.27534 3.5331 1.02148 6.75195H3.49414L4.85254 4.375L4.91309 4.28418C5.22009 3.88819 5.83439 3.9052 6.11914 4.31738L6.1748 4.41211L8.58203 9.22754L9.70898 7.25586C9.88706 6.9446 10.2185 6.75201 10.5771 6.75195H13.4785C13.2247 3.5331 10.5341 1 7.25 1Z" fill="#A8A8A8"/>
</svg>
