<svg preserveAspectRatio="none" overflow="visible" style="display: block;" width="15" height="15" viewBox="0 0 15 15" fill="none" xmlns="http://www.w3.org/2000/svg">
<g id="Button - Fit graph to screen &#226;&#134;&#146; SVG">
<path id="Vector" d="M5 1.875H3.125C2.79348 1.875 2.47554 2.0067 2.24112 2.24112C2.0067 2.47554 1.875 2.79348 1.875 3.125V5" stroke="#4A4A44" stroke-width="1.25" stroke-linecap="round" stroke-linejoin="round"/>
<path id="Vector_2" d="M10 1.875H11.875C12.2065 1.875 12.5245 2.0067 12.7589 2.24112C12.9933 2.47554 13.125 2.79348 13.125 3.125V5" stroke="#4A4A44" stroke-width="1.25" stroke-linecap="round" stroke-linejoin="round"/>
<path id="Vector_3" d="M5 13.125H3.125C2.79348 13.125 2.47554 12.9933 2.24112 12.7589C2.0067 12.5245 1.875 12.2065 1.875 11.875V10" stroke="#4A4A44" stroke-width="1.25" stroke-linecap="round" stroke-linejoin="round"/>
<path id="Vector_4" d="M10 13.125H11.875C12.2065 13.125 12.5245 12.9933 12.7589 12.7589C12.9933 12.5245 13.125 12.2065 13.125 11.875V10" stroke="#4A4A44" stroke-width="1.25" stroke-linecap="round" stroke-linejoin="round"/>
</g>
</svg>
